<svg width="39" height="40" viewBox="0 0 39 40" fill="none" xmlns="http://www.w3.org/2000/svg">
<path fill-rule="evenodd" clip-rule="evenodd" d="M16.4468 0.429367C16.4786 0.665603 16.5549 1.36463 16.6161 1.98283C16.7418 3.25285 18.3388 16.1507 18.3889 16.3016C18.4364 16.4442 18.4665 16.2854 19.4341 10.7793C19.9206 8.01089 20.335 5.72849 20.355 5.70737C20.375 5.68626 20.701 5.92817 21.0794 6.24494C26.7154 10.9626 29.6559 13.4508 29.6559 13.502C29.6559 13.5366 29.3566 14.4103 28.9908 15.4434L28.3257 17.3219L27.3537 17.6537C26.8191 17.8362 23.9184 18.8161 20.9077 19.8314C16.1192 21.4461 15.4914 21.6805 15.8942 21.703C16.1474 21.7171 20.2165 21.5562 24.9365 21.3451C31.5648 21.0489 33.5474 20.9318 33.6458 20.8307C33.9535 20.5149 39.0296 13.2078 38.9999 13.1236C38.9752 13.054 19.6599 1.83583 16.8322 0.248746L16.3888 0L16.4468 0.429367ZM7.40189 9.07067C3.37827 11.4032 0.0479501 13.3258 0.00108882 13.3431C-0.0456701 13.3605 1.41951 15.3528 3.25702 17.7703C5.09464 20.1879 9.64519 26.1778 13.3692 31.0813C17.0934 35.9848 20.1747 39.9981 20.2168 40C20.2974 40.0035 32.6093 22.4073 32.5533 22.3687C32.5037 22.3345 16.7346 23.1689 16.5962 23.213C16.5298 23.2341 18.5878 23.4164 21.1698 23.6181C23.7517 23.8197 25.8788 23.9987 25.8966 24.0158C25.9145 24.0329 24.6498 27.437 23.0862 31.5807C21.5226 35.7242 20.2157 39.0835 20.182 39.0458C19.9728 38.8111 12.1783 22.8458 10.2111 18.6229L7.83234 13.5161L11.0592 9.53317C12.8341 7.34265 14.4217 5.38542 14.5872 5.18379C14.7528 4.98225 14.8499 4.8201 14.8029 4.82352C14.7559 4.82694 11.4255 6.73813 7.40189 9.07067Z" fill="black"/>
</svg>
